<svg width="130" height="130" viewBox="0 0 130 130" xmlns="http://www.w3.org/2000/svg" xmlns:xlink="http://www.w3.org/1999/xlink"><title>dalkurd_logo</title><defs><path id="a" d="M.045.03h109.933V110H.045"/></defs><g fill="none" fill-rule="evenodd"><g transform="translate(10 8)"><mask id="b" fill="#fff"><use xlink:href="#a"/></mask><path d="M109.978 55.012c0 30.37-24.62 54.988-54.99 54.988C24.62 110 0 85.382 0 55.012S24.62.022 54.99.022s54.988 24.62 54.988 54.99" fill="#EBC230" mask="url(#b)"/></g><path d="M118.748 63.012c0 29.69-24.068 53.76-53.76 53.76-29.69 0-53.76-24.07-53.76-53.76 0-29.69 24.07-53.76 53.76-53.76 29.692 0 53.76 24.07 53.76 53.76" fill="#FFF"/><path d="M116.793 47.664C110.12 25.358 89.44 9.1 64.963 9.1c-24.575 0-45.322 16.39-51.91 38.833 0 0 20.286-4.978 51.988-4.824 30.634.147 51.753 4.554 51.753 4.554" fill="#C2242A"/><path d="M116.518 78.564c-6.63 22.16-27.172 38.31-51.486 38.31-24.414 0-45.024-16.28-51.567-38.577 0 0 20.152 4.945 51.643 4.793 30.43-.15 51.41-4.526 51.41-4.526" fill="#2D8F43"/><path d="M18.837 70.636s.167-7.195.636-8.03c.468-.838 1.34-1.743 2.076-1.842.734-.1 4.35-.67 4.616-.903.268-.234.937-1.807 1.473-2.343.534-.535 1.203-1.238 1.74-1.305.534-.067 2.174-.134 2.174-.134l.904-.802.2.2.102 1.94s1.974 1.91 1.974 2.076c0 .167-.034 1.205-.234 1.305-.2.1-2.243-.435-2.243-.435s-.435.5-.568.77c-.136.268-.705 2.344-.77 2.912-.07.568-.436 6.56-.436 6.56h-1.54l-.937-4.72s-.47.402-1.405.435c-.937.033-1.64.1-2.61.033a9.396 9.396 0 0 1-1.775-.3l-1.974 4.55-1.406.033M111.216 70.636s-.168-7.195-.637-8.03c-.47-.838-1.34-1.743-2.076-1.842-.736-.1-4.35-.67-4.618-.903-.267-.234-.936-1.807-1.473-2.343-.535-.535-1.204-1.238-1.74-1.305-.535-.067-2.175-.134-2.175-.134l-.904-.802-.2.2-.1 1.94s-1.975 1.91-1.975 2.076c0 .167.033 1.205.233 1.305.2.1 2.243-.435 2.243-.435s.434.5.57.77c.132.268.7 2.344.768 2.912.067.568.436 6.56.436 6.56h1.54l.936-4.72s.47.402 1.406.435c.937.033 1.64.1 2.61.033s1.773-.3 1.773-.3l1.975 4.55 1.406.033M63.282 50.633l1.696-12.013 1.91 12.154 5.3-10.883-1.698 12.016 8.48-9.33-5.58 11.66 10.6-6.146-8.198 8.903 11.942-2.615-10.46 6.078 12.084.92-11.8 2.613L88.51 68.51l-11.942-.848 9.47 7.632-11.45-4.522 6.856 10.034-9.61-7.703L75.65 85.26l-6.997-10.387-.07 12.65-3.605-12.086-3.604 12.085-.07-12.438-7.066 10.106 3.816-11.944-9.753 7.986 6.856-10.387-11.378 4.592 9.752-7.844-12.155.92 11.45-4.594-11.59-2.615 11.942-.92L42.79 54.31l11.66 2.683-8.27-8.833 10.672 6.007L51.34 42.86l8.41 9.257-1.98-12.367 5.512 10.883" fill="#EBC230"/><path d="M50.8 22.218v7.103h.985c.84 0 1.437-.092 1.79-.28.356-.185.634-.51.835-.974.2-.464.3-1.216.3-2.256 0-1.378-.224-2.32-.673-2.828-.45-.51-1.193-.764-2.234-.764H50.8zm-4.015-2.943h5.967c1.176 0 2.126.16 2.85.48a4.63 4.63 0 0 1 1.795 1.373 5.677 5.677 0 0 1 1.03 2.084c.212.792.32 1.63.32 2.517 0 1.39-.16 2.466-.476 3.23a5.34 5.34 0 0 1-1.316 1.925c-.562.518-1.164.862-1.81 1.033-.88.237-1.678.355-2.392.355h-5.967V19.275zM66.78 27.317l-1.435-4.673-1.42 4.673h2.855zm.833 2.81h-4.56l-.634 2.146h-4.102l4.886-12.998h4.38l4.885 12.998h-4.206l-.65-2.145zM73.292 19.275h4.017v9.797h6.267v3.2H73.292V19.276M31.625 90.086h3.13v3.83l3.282-3.83H42.2l-3.697 3.825 3.865 6.31H38.51l-2.136-4.168-1.618 1.695v2.472h-3.13V90.085M49.93 90.086h3.123v6.037a5.09 5.09 0 0 1-.28 1.696c-.187.532-.48.997-.878 1.395s-.817.678-1.254.84c-.608.225-1.34.338-2.19.338-.494 0-1.032-.035-1.615-.104-.583-.07-1.07-.207-1.462-.413a3.664 3.664 0 0 1-1.075-.873c-.325-.377-.547-.767-.667-1.167-.193-.646-.29-1.216-.29-1.714v-6.037h3.125v6.18c0 .554.153.985.46 1.296.306.31.73.466 1.275.466.54 0 .962-.153 1.27-.46.305-.305.46-.74.46-1.3v-6.182M58.243 94.192h1.32c.143 0 .42-.046.83-.14a.83.83 0 0 0 .508-.317.934.934 0 0 0 .198-.587c0-.328-.103-.58-.31-.753-.208-.176-.598-.263-1.17-.263h-1.375v2.06zm-3.145 6.027V90.085h5.22c.967 0 1.706.083 2.22.248.51.166.922.474 1.236.923.313.45.47.997.47 1.642 0 .562-.12 1.046-.36 1.454-.24.41-.57.74-.99.992-.266.162-.634.295-1.1.4.373.126.646.25.816.375.115.084.282.26.5.534.22.272.366.482.44.63l1.516 2.935h-3.538l-1.674-3.098c-.212-.4-.4-.66-.567-.78a1.312 1.312 0 0 0-.767-.236h-.277v4.113h-3.145zM69.17 92.38v5.538h.77c.652 0 1.117-.073 1.395-.218.276-.146.492-.4.65-.76.155-.362.234-.95.234-1.76 0-1.074-.176-1.808-.526-2.205-.35-.396-.93-.594-1.743-.594h-.78zm-3.13-2.294h4.652c.917 0 1.658.124 2.222.373.565.248 1.03.605 1.4 1.07.368.465.636 1.006.802 1.625.166.617.25 1.272.25 1.963 0 1.083-.125 1.923-.372 2.52a4.173 4.173 0 0 1-1.026 1.5c-.438.403-.908.672-1.41.805-.687.184-1.31.276-1.866.276H66.04V90.085zM81.604 90.086h7.742v2.177H84.75v1.77h3.925v2.046H84.75v4.14h-3.146V90.085M90.976 90.086h7.743v2.177H94.12v1.77h3.926v2.046h-3.926v4.14h-3.146V90.085M58.844 109.145h-5.142c.06-.507.238-.985.537-1.433.297-.447.858-.975 1.68-1.584.502-.373.823-.656.964-.85.14-.193.21-.378.21-.55 0-.19-.07-.35-.21-.483a.725.725 0 0 0-.523-.2.728.728 0 0 0-.535.206c-.14.14-.232.38-.28.73l-1.717-.14c.068-.48.19-.858.37-1.13.18-.27.434-.477.76-.622.327-.145.78-.217 1.357-.217.603 0 1.073.07 1.408.207.335.138.6.35.79.634.193.285.29.605.29.958 0 .377-.11.735-.33 1.077-.222.342-.622.718-1.203 1.128-.345.238-.575.405-.692.5a6.48 6.48 0 0 0-.41.375h2.676v1.397M61.276 106.04c0 .785.07 1.322.208 1.61.14.286.34.43.604.43a.63.63 0 0 0 .453-.183c.128-.122.222-.314.282-.578.06-.264.09-.676.09-1.234 0-.82-.068-1.37-.207-1.652-.14-.282-.347-.423-.625-.423-.284 0-.49.145-.615.432-.126.29-.19.82-.19 1.598zm-1.7-.004c0-1.174.21-1.993.634-2.462.422-.47 1.065-.703 1.93-.703.414 0 .755.053 1.02.155.268.102.486.235.654.4.17.164.3.336.398.517.095.18.174.393.233.634.115.46.17.94.17 1.438 0 1.12-.187 1.94-.566 2.458-.38.518-1.03.78-1.958.78-.518 0-.938-.085-1.257-.25a2.03 2.03 0 0 1-.787-.728c-.15-.227-.266-.537-.348-.932a6.385 6.385 0 0 1-.123-1.306zM67.024 106.04c0 .785.07 1.322.21 1.61.137.286.338.43.602.43a.63.63 0 0 0 .452-.183c.128-.122.222-.314.283-.578.06-.264.09-.676.09-1.234 0-.82-.07-1.37-.207-1.652-.14-.282-.348-.423-.625-.423-.283 0-.488.145-.614.432-.126.29-.19.82-.19 1.598zm-1.7-.004c0-1.174.212-1.993.633-2.462.422-.47 1.065-.703 1.93-.703.414 0 .755.053 1.022.155.266.102.483.235.65.4.17.164.302.336.4.517.096.18.174.393.232.634.116.46.173.94.173 1.438 0 1.12-.19 1.94-.568 2.458-.378.518-1.032.78-1.956.78-.52 0-.938-.085-1.258-.25a2.04 2.04 0 0 1-.787-.728c-.148-.227-.264-.537-.346-.932a6.33 6.33 0 0 1-.126-1.306zM74.018 106.663v-1.942l-1.65 1.943h1.65zm0 1.33h-3.123v-1.41l3.123-3.712h1.494v3.793h.773v1.33h-.773v1.152h-1.494v-1.153z" fill="#FFF"/></g></svg>